<svg width="13" height="12" viewBox="0 0 13 12" fill="none" xmlns="http://www.w3.org/2000/svg">
<g clip-path="url(#clip0_13_575)">
<path d="M12.3475 1.97482C12.3475 1.88657 12.3241 1.79989 12.2797 1.7236C12.2353 1.6473 12.1715 1.58411 12.0947 1.54043C12.018 1.49675 11.9311 1.47415 11.8428 1.47492C11.7544 1.4757 11.6679 1.49981 11.5919 1.54482C11.299 1.71922 10.9835 1.85279 10.6543 1.94182C10.1845 1.53896 9.58521 1.31852 8.96612 1.32082C8.28702 1.32163 7.63481 1.58613 7.1472 2.05848C6.65959 2.53082 6.37474 3.17404 6.35281 3.85232C5.01378 3.63898 3.80017 2.94058 2.94344 1.89032C2.89182 1.8278 2.82592 1.7786 2.7513 1.74684C2.67668 1.71508 2.59552 1.7017 2.51464 1.70782C2.43378 1.71451 2.35577 1.74076 2.28734 1.78432C2.21891 1.82787 2.16212 1.88742 2.12187 1.95782C1.91549 2.31777 1.79696 2.72128 1.77592 3.1356C1.75489 3.54991 1.83192 3.96334 2.00078 4.34232L1.99978 4.34282C1.92372 4.38952 1.86095 4.45498 1.81749 4.5329C1.77403 4.61083 1.75135 4.69861 1.75161 4.78782C1.75081 4.86122 1.75532 4.93457 1.76512 5.00732C1.81622 5.63634 2.09517 6.22514 2.54966 6.66332C2.51882 6.72208 2.50002 6.78639 2.49435 6.85249C2.48868 6.9186 2.49626 6.98517 2.51664 7.04832C2.71477 7.6654 3.1362 8.18638 3.69846 8.50932C3.12715 8.73004 2.51029 8.80696 1.90222 8.73332C1.78972 8.71934 1.67581 8.74395 1.57914 8.80311C1.48248 8.86227 1.40878 8.95249 1.37012 9.05898C1.33146 9.16546 1.33013 9.28192 1.36635 9.38926C1.40257 9.4966 1.47419 9.58847 1.56948 9.64982C2.61531 10.3228 3.833 10.6806 5.07692 10.6803C6.48752 10.6962 7.86383 10.2458 8.99176 9.39912C10.1197 8.55247 10.936 7.35705 11.3138 5.99882C11.4904 5.4072 11.5805 4.7932 11.5814 4.17582L11.5809 4.07582C11.8422 3.79422 12.0446 3.46333 12.1762 3.10256C12.3078 2.74178 12.3661 2.35838 12.3475 1.97482ZM10.6933 3.58082C10.6106 3.67843 10.5687 3.80413 10.5762 3.93182C10.5812 4.01432 10.5807 4.09732 10.5807 4.17582C10.5797 4.69741 10.5032 5.21611 10.3536 5.71582C10.0452 6.87163 9.35759 7.89058 8.40087 8.60948C7.44415 9.32838 6.27368 9.70564 5.07692 9.68082C4.64719 9.68088 4.21894 9.63037 3.80103 9.53032C4.33406 9.35854 4.83243 9.09378 5.27306 8.74832C5.35431 8.68448 5.41378 8.59707 5.44331 8.49809C5.47283 8.39911 5.47096 8.29342 5.43795 8.19555C5.40494 8.09768 5.3424 8.01242 5.25894 7.9515C5.17548 7.89058 5.07519 7.85698 4.97185 7.85532C4.55592 7.84882 4.15876 7.68121 3.86408 7.38782C3.9388 7.37382 4.01301 7.35632 4.08673 7.33532C4.19482 7.30461 4.28942 7.23844 4.35529 7.14747C4.42116 7.05649 4.45446 6.946 4.44984 6.83381C4.44522 6.72161 4.40294 6.61423 4.3298 6.52897C4.25667 6.44372 4.15695 6.38554 4.0467 6.36382C3.80528 6.31617 3.57811 6.21351 3.38286 6.06383C3.1876 5.91415 3.02953 5.72149 2.92092 5.50082C3.01136 5.51317 3.10238 5.52085 3.19361 5.52382C3.30203 5.5256 3.4082 5.49283 3.49672 5.43026C3.58524 5.36769 3.65153 5.27857 3.68595 5.17582C3.719 5.0722 3.71734 4.96064 3.68123 4.85805C3.64511 4.75546 3.57651 4.66744 3.48582 4.60732C3.26563 4.46085 3.08524 4.26209 2.96081 4.02884C2.83637 3.79559 2.77178 3.53514 2.77282 3.27082C2.77282 3.23782 2.77382 3.20432 2.77582 3.17182C3.89733 4.21713 5.35207 4.83333 6.88367 4.91182C6.96101 4.91475 7.038 4.90007 7.10882 4.86889C7.17964 4.8377 7.24244 4.79083 7.29246 4.73182C7.34201 4.67244 7.3771 4.60239 7.39499 4.52718C7.41287 4.45196 7.41306 4.37362 7.39553 4.29832C7.36688 4.17892 7.35227 4.0566 7.352 3.93382C7.35253 3.50619 7.52276 3.09622 7.82535 2.79384C8.12794 2.49146 8.53819 2.32135 8.96612 2.32082C9.18635 2.32017 9.40432 2.36515 9.60627 2.45294C9.80822 2.54072 9.98976 2.66939 10.1394 2.83082C10.1971 2.89288 10.2698 2.93915 10.3504 2.96523C10.4311 2.99131 10.5171 2.99633 10.6003 2.97982C10.8058 2.93989 11.0084 2.8861 11.2067 2.81882C11.0715 3.09523 10.8987 3.35165 10.6933 3.58082Z" fill="white"/>
</g>
<defs>
<clipPath id="clip0_13_575">
<rect width="12.0083" height="12" fill="white" transform="translate(0.84433)"/>
</clipPath>
</defs>
</svg>
