<svg width="165" height="33" viewBox="0 0 165 33" fill="none" xmlns="http://www.w3.org/2000/svg">
<path d="M12.196 26.288C11.452 26.288 10.876 26.084 10.468 25.676C10.084 25.244 9.892 24.656 9.892 23.912V4.472H2.872C2.248 4.472 1.756 4.304 1.396 3.968C1.06 3.608 0.892 3.128 0.892 2.528C0.892 1.904 1.06 1.436 1.396 1.124C1.756 0.787998 2.248 0.619998 2.872 0.619998H21.52C22.144 0.619998 22.624 0.787998 22.96 1.124C23.32 1.436 23.5 1.904 23.5 2.528C23.5 3.128 23.32 3.608 22.96 3.968C22.624 4.304 22.144 4.472 21.52 4.472H14.5V23.912C14.5 24.656 14.308 25.244 13.924 25.676C13.54 26.084 12.964 26.288 12.196 26.288ZM25.1909 26.288C24.4469 26.288 23.8709 26.096 23.4629 25.712C23.0789 25.304 22.8869 24.728 22.8869 23.984V10.376C22.8869 9.632 23.0789 9.068 23.4629 8.684C23.8469 8.3 24.3869 8.108 25.0829 8.108C25.7789 8.108 26.3189 8.3 26.7029 8.684C27.0869 9.068 27.2789 9.632 27.2789 10.376V12.644H26.9189C27.2549 11.204 27.9149 10.112 28.8989 9.368C29.8829 8.624 31.1909 8.18 32.8229 8.036C33.3269 7.988 33.7229 8.12 34.0109 8.432C34.3229 8.72 34.5029 9.176 34.5509 9.8C34.5989 10.4 34.4549 10.892 34.1189 11.276C33.8069 11.636 33.3269 11.852 32.6789 11.924L31.8869 11.996C30.4229 12.14 29.3189 12.596 28.5749 13.364C27.8309 14.108 27.4589 15.164 27.4589 16.532V23.984C27.4589 24.728 27.2669 25.304 26.8829 25.712C26.4989 26.096 25.9349 26.288 25.1909 26.288ZM42.6048 26.36C41.3328 26.36 40.1928 26.12 39.1848 25.64C38.2008 25.136 37.4208 24.464 36.8447 23.624C36.2928 22.784 36.0168 21.836 36.0168 20.78C36.0168 19.484 36.3528 18.464 37.0248 17.72C37.6968 16.952 38.7888 16.4 40.3008 16.064C41.8128 15.728 43.8408 15.56 46.3848 15.56H48.1848V18.152H46.4208C44.9328 18.152 43.7448 18.224 42.8568 18.368C41.9688 18.512 41.3328 18.764 40.9488 19.124C40.5888 19.46 40.4088 19.94 40.4088 20.564C40.4088 21.356 40.6848 22.004 41.2368 22.508C41.7888 23.012 42.5568 23.264 43.5408 23.264C44.3328 23.264 45.0288 23.084 45.6288 22.724C46.2528 22.34 46.7448 21.824 47.1048 21.176C47.4648 20.528 47.6448 19.784 47.6448 18.944V14.804C47.6448 13.604 47.3808 12.74 46.8528 12.212C46.3248 11.684 45.4368 11.42 44.1888 11.42C43.4928 11.42 42.7368 11.504 41.9208 11.672C41.1288 11.84 40.2888 12.128 39.4008 12.536C38.9448 12.752 38.5368 12.812 38.1768 12.716C37.8408 12.62 37.5768 12.428 37.3848 12.14C37.1928 11.828 37.0968 11.492 37.0968 11.132C37.0968 10.772 37.1928 10.424 37.3848 10.088C37.5768 9.728 37.9008 9.464 38.3568 9.296C39.4608 8.84 40.5168 8.516 41.5248 8.324C42.5568 8.132 43.4928 8.036 44.3328 8.036C46.0608 8.036 47.4768 8.3 48.5808 8.828C49.7088 9.356 50.5488 10.16 51.1008 11.24C51.6528 12.296 51.9288 13.664 51.9288 15.344V23.984C51.9288 24.728 51.7488 25.304 51.3888 25.712C51.0288 26.096 50.5128 26.288 49.8408 26.288C49.1688 26.288 48.6408 26.096 48.2568 25.712C47.8968 25.304 47.7168 24.728 47.7168 23.984V22.256H48.0048C47.8368 23.096 47.5008 23.828 46.9968 24.452C46.5168 25.052 45.9048 25.52 45.1608 25.856C44.4168 26.192 43.5648 26.36 42.6048 26.36ZM62.8683 26.36C61.4043 26.36 60.1923 26.096 59.2323 25.568C58.2723 25.016 57.5523 24.2 57.0723 23.12C56.6163 22.04 56.3883 20.696 56.3883 19.088V10.376C56.3883 9.608 56.5803 9.044 56.9643 8.684C57.3483 8.3 57.9003 8.108 58.6203 8.108C59.3403 8.108 59.8923 8.3 60.2763 8.684C60.6843 9.044 60.8883 9.608 60.8883 10.376V19.16C60.8883 20.408 61.1403 21.332 61.6443 21.932C62.1483 22.532 62.9523 22.832 64.0563 22.832C65.2563 22.832 66.2403 22.424 67.0083 21.608C67.7763 20.768 68.1603 19.664 68.1603 18.296V10.376C68.1603 9.608 68.3523 9.044 68.7363 8.684C69.1203 8.3 69.6723 8.108 70.3923 8.108C71.1123 8.108 71.6643 8.3 72.0483 8.684C72.4563 9.044 72.6602 9.608 72.6602 10.376V23.984C72.6602 25.52 71.9283 26.288 70.4643 26.288C69.7683 26.288 69.2283 26.096 68.8443 25.712C68.4603 25.304 68.2683 24.728 68.2683 23.984V21.248L68.7723 22.328C68.2683 23.624 67.5003 24.62 66.4683 25.316C65.4603 26.012 64.2603 26.36 62.8683 26.36ZM79.5759 26.288C78.8559 26.288 78.3039 26.096 77.9199 25.712C77.5359 25.304 77.3439 24.728 77.3439 23.984V10.376C77.3439 9.632 77.5359 9.068 77.9199 8.684C78.3039 8.3 78.8439 8.108 79.5399 8.108C80.2359 8.108 80.7759 8.3 81.1599 8.684C81.5439 9.068 81.7359 9.632 81.7359 10.376V12.824L81.3399 11.924C81.8679 10.652 82.6839 9.692 83.7879 9.044C84.9159 8.372 86.1879 8.036 87.6039 8.036C89.0199 8.036 90.1839 8.3 91.0959 8.828C92.0079 9.356 92.6919 10.16 93.1479 11.24C93.6039 12.296 93.8319 13.64 93.8319 15.272V23.984C93.8319 24.728 93.6399 25.304 93.2559 25.712C92.8719 26.096 92.3199 26.288 91.5999 26.288C90.8799 26.288 90.3159 26.096 89.9079 25.712C89.5239 25.304 89.3319 24.728 89.3319 23.984V15.488C89.3319 14.12 89.0679 13.124 88.5399 12.5C88.0359 11.876 87.2439 11.564 86.1639 11.564C84.8439 11.564 83.7879 11.984 82.9959 12.824C82.2279 13.64 81.8439 14.732 81.8439 16.1V23.984C81.8439 25.52 81.0879 26.288 79.5759 26.288ZM104.847 26.36C103.815 26.36 102.723 26.252 101.571 26.036C100.419 25.82 99.3865 25.448 98.4745 24.92C98.0905 24.68 97.8145 24.404 97.6465 24.092C97.5025 23.756 97.4425 23.432 97.4665 23.12C97.5145 22.784 97.6345 22.496 97.8265 22.256C98.0425 22.016 98.3065 21.86 98.6185 21.788C98.9545 21.716 99.3145 21.776 99.6985 21.968C100.659 22.424 101.559 22.748 102.399 22.94C103.239 23.108 104.067 23.192 104.883 23.192C106.035 23.192 106.887 23 107.439 22.616C108.015 22.208 108.303 21.68 108.303 21.032C108.303 20.48 108.111 20.06 107.727 19.772C107.367 19.46 106.815 19.232 106.071 19.088L102.471 18.404C100.983 18.116 99.8425 17.576 99.0505 16.784C98.2825 15.968 97.8985 14.924 97.8985 13.652C97.8985 12.5 98.2105 11.504 98.8345 10.664C99.4825 9.824 100.371 9.176 101.499 8.72C102.627 8.264 103.923 8.036 105.387 8.036C106.443 8.036 107.427 8.156 108.339 8.396C109.275 8.612 110.175 8.96 111.039 9.44C111.399 9.632 111.639 9.884 111.759 10.196C111.903 10.508 111.939 10.832 111.867 11.168C111.795 11.48 111.651 11.768 111.435 12.032C111.219 12.272 110.943 12.428 110.607 12.5C110.295 12.548 109.935 12.476 109.527 12.284C108.783 11.9 108.063 11.624 107.367 11.456C106.695 11.288 106.047 11.204 105.423 11.204C104.247 11.204 103.371 11.408 102.795 11.816C102.243 12.224 101.967 12.764 101.967 13.436C101.967 13.94 102.135 14.36 102.471 14.696C102.807 15.032 103.323 15.26 104.019 15.38L107.619 16.064C109.179 16.352 110.355 16.88 111.147 17.648C111.963 18.416 112.371 19.448 112.371 20.744C112.371 22.496 111.687 23.876 110.319 24.884C108.951 25.868 107.127 26.36 104.847 26.36ZM118.213 26.288C117.493 26.288 116.941 26.096 116.557 25.712C116.173 25.304 115.981 24.728 115.981 23.984V2.6C115.981 1.856 116.173 1.292 116.557 0.907999C116.941 0.523998 117.493 0.331998 118.213 0.331998C118.933 0.331998 119.485 0.523998 119.869 0.907999C120.277 1.292 120.481 1.856 120.481 2.6V11.924H119.977C120.505 10.652 121.321 9.692 122.425 9.044C123.553 8.372 124.825 8.036 126.241 8.036C127.657 8.036 128.821 8.3 129.733 8.828C130.645 9.356 131.329 10.16 131.785 11.24C132.241 12.296 132.469 13.64 132.469 15.272V23.984C132.469 24.728 132.277 25.304 131.893 25.712C131.509 26.096 130.957 26.288 130.237 26.288C129.517 26.288 128.953 26.096 128.545 25.712C128.161 25.304 127.969 24.728 127.969 23.984V15.488C127.969 14.12 127.705 13.124 127.177 12.5C126.673 11.876 125.881 11.564 124.801 11.564C123.481 11.564 122.425 11.984 121.633 12.824C120.865 13.64 120.481 14.732 120.481 16.1V23.984C120.481 25.52 119.725 26.288 118.213 26.288ZM139.271 26.252C138.551 26.252 137.999 26.036 137.615 25.604C137.231 25.172 137.039 24.572 137.039 23.804V10.592C137.039 9.8 137.231 9.2 137.615 8.792C137.999 8.36 138.551 8.144 139.271 8.144C139.991 8.144 140.543 8.36 140.927 8.792C141.335 9.2 141.539 9.8 141.539 10.592V23.804C141.539 24.572 141.347 25.172 140.963 25.604C140.579 26.036 140.015 26.252 139.271 26.252ZM139.271 4.796C138.431 4.796 137.771 4.592 137.291 4.184C136.835 3.752 136.607 3.164 136.607 2.42C136.607 1.652 136.835 1.064 137.291 0.655998C137.771 0.247999 138.431 0.0439994 139.271 0.0439994C140.135 0.0439994 140.795 0.247999 141.251 0.655998C141.707 1.064 141.935 1.652 141.935 2.42C141.935 3.164 141.707 3.752 141.251 4.184C140.795 4.592 140.135 4.796 139.271 4.796ZM148.447 32.768C147.727 32.768 147.175 32.576 146.791 32.192C146.407 31.808 146.215 31.244 146.215 30.5V10.376C146.215 9.632 146.407 9.068 146.791 8.684C147.175 8.3 147.715 8.108 148.411 8.108C149.131 8.108 149.683 8.3 150.067 8.684C150.451 9.068 150.643 9.632 150.643 10.376V13.184L150.247 12.104C150.607 10.88 151.339 9.896 152.443 9.152C153.571 8.408 154.879 8.036 156.367 8.036C157.903 8.036 159.247 8.408 160.399 9.152C161.575 9.896 162.487 10.952 163.135 12.32C163.783 13.664 164.107 15.284 164.107 17.18C164.107 19.052 163.783 20.684 163.135 22.076C162.487 23.444 161.587 24.5 160.435 25.244C159.283 25.988 157.927 26.36 156.367 26.36C154.903 26.36 153.619 26 152.515 25.28C151.411 24.536 150.667 23.576 150.283 22.4H150.715V30.5C150.715 31.244 150.511 31.808 150.103 32.192C149.719 32.576 149.167 32.768 148.447 32.768ZM155.107 22.94C155.995 22.94 156.775 22.724 157.447 22.292C158.119 21.86 158.635 21.224 158.995 20.384C159.379 19.52 159.571 18.452 159.571 17.18C159.571 15.26 159.163 13.832 158.347 12.896C157.531 11.936 156.451 11.456 155.107 11.456C154.219 11.456 153.439 11.672 152.767 12.104C152.095 12.512 151.567 13.148 151.183 14.012C150.823 14.852 150.643 15.908 150.643 17.18C150.643 19.076 151.051 20.516 151.867 21.5C152.683 22.46 153.763 22.94 155.107 22.94Z" fill="white"/>
</svg>
