<svg aria-hidden="true" style="position: absolute; width: 0; height: 0; overflow: hidden;" version="1.1" xmlns="http://www.w3.org/2000/svg" xmlns:xlink="http://www.w3.org/1999/xlink">
<defs>
<symbol id="icon-facebook" viewBox="0 0 32 32">
<path fill="var(--white-color)" d="M20.457 5.312h3.010v-5.088c-1.457-0.151-2.922-0.226-4.387-0.224-4.355 0-7.333 2.656-7.333 7.52v4.192h-4.915v5.696h4.915v14.592h5.892v-14.592h4.899l0.736-5.696h-5.636v-3.632c0-1.68 0.448-2.768 2.818-2.768z"></path>
</symbol>
<symbol id="icon-twitter" viewBox="0 0 32 32">
<path fill="var(--white-color)" d="M30.26 5.266c0-0.235-0.062-0.466-0.181-0.67s-0.289-0.372-0.493-0.488c-0.205-0.116-0.436-0.177-0.672-0.175s-0.466 0.066-0.669 0.186c-0.781 0.465-1.622 0.821-2.5 1.059-1.253-1.074-2.851-1.662-4.502-1.656-1.811 0.002-3.55 0.708-4.85 1.967s-2.060 2.975-2.118 4.784c-3.571-0.569-6.807-2.431-9.092-5.232-0.138-0.167-0.313-0.298-0.512-0.383s-0.415-0.12-0.631-0.104c-0.216 0.018-0.424 0.088-0.606 0.204s-0.334 0.275-0.441 0.463c-0.55 0.96-0.866 2.036-0.923 3.141s0.149 2.207 0.6 3.218l-0.003 0.001c-0.203 0.125-0.37 0.299-0.486 0.507s-0.176 0.442-0.176 0.68c-0.002 0.196 0.010 0.391 0.036 0.585 0.136 1.677 0.88 3.248 2.092 4.416-0.082 0.157-0.132 0.328-0.147 0.504s0.005 0.354 0.059 0.522c0.528 1.646 1.652 3.035 3.152 3.896-1.524 0.589-3.168 0.794-4.79 0.597-0.3-0.037-0.604 0.028-0.862 0.186s-0.454 0.398-0.557 0.682c-0.103 0.284-0.107 0.595-0.010 0.881s0.288 0.531 0.542 0.695c2.789 1.795 6.036 2.749 9.353 2.748 3.762 0.042 7.432-1.159 10.44-3.417s5.185-5.446 6.192-9.067c0.471-1.578 0.711-3.215 0.714-4.861l-0.001-0.267c0.697-0.751 1.237-1.633 1.587-2.595s0.506-1.984 0.457-3.007zM25.849 9.549c-0.221 0.26-0.332 0.595-0.312 0.936 0.013 0.22 0.012 0.441 0.012 0.651-0.003 1.391-0.207 2.774-0.606 4.107-0.822 3.082-2.656 5.799-5.207 7.716s-5.672 2.923-8.864 2.857c-1.146 0-2.288-0.135-3.402-0.401 1.421-0.458 2.75-1.164 3.925-2.085 0.217-0.17 0.375-0.403 0.454-0.667s0.074-0.546-0.014-0.807c-0.088-0.261-0.255-0.488-0.477-0.651s-0.49-0.252-0.766-0.256c-1.109-0.017-2.168-0.464-2.954-1.247 0.199-0.037 0.397-0.084 0.594-0.14 0.288-0.082 0.54-0.258 0.716-0.501s0.264-0.537 0.252-0.836c-0.012-0.299-0.125-0.586-0.32-0.813s-0.461-0.382-0.755-0.44c-0.644-0.127-1.25-0.401-1.77-0.8s-0.942-0.913-1.232-1.501c0.241 0.033 0.484 0.053 0.727 0.061 0.289 0.005 0.572-0.083 0.808-0.249s0.413-0.405 0.505-0.678c0.088-0.276 0.084-0.574-0.013-0.847s-0.279-0.508-0.521-0.669c-0.587-0.391-1.068-0.921-1.4-1.543s-0.504-1.317-0.501-2.021c0-0.088 0.003-0.177 0.008-0.264 2.991 2.787 6.87 4.431 10.954 4.64 0.206 0.008 0.412-0.031 0.6-0.114s0.356-0.208 0.49-0.366c0.132-0.158 0.226-0.345 0.273-0.546s0.048-0.409 0.001-0.61c-0.076-0.318-0.115-0.645-0.116-0.972 0.001-1.14 0.455-2.234 1.262-3.040s1.901-1.26 3.042-1.261c0.587-0.002 1.169 0.118 1.707 0.352s1.023 0.577 1.422 1.008c0.154 0.165 0.348 0.289 0.563 0.358s0.444 0.083 0.666 0.039c0.548-0.106 1.088-0.25 1.617-0.429-0.361 0.737-0.821 1.421-1.369 2.032z"></path>
</symbol>
<symbol id="icon-instagram" viewBox="0 0 32 32">
<path fill="var(--white-color)" d="M24.833 6.487c-0.345 0-0.683 0.102-0.97 0.294s-0.511 0.464-0.643 0.783c-0.132 0.319-0.167 0.67-0.099 1.008s0.234 0.65 0.478 0.894c0.244 0.244 0.556 0.41 0.894 0.478s0.69 0.033 1.009-0.099c0.319-0.132 0.592-0.356 0.784-0.643s0.294-0.624 0.294-0.97c0-0.463-0.184-0.907-0.512-1.234s-0.772-0.511-1.235-0.511zM31.529 10.007c-0.029-1.207-0.255-2.401-0.67-3.535-0.37-0.97-0.946-1.848-1.688-2.575-0.721-0.746-1.602-1.318-2.576-1.673-1.131-0.427-2.328-0.659-3.537-0.684-1.543-0.087-2.038-0.087-5.997-0.087s-4.454 0-5.997 0.087c-1.209 0.025-2.406 0.256-3.537 0.684-0.973 0.359-1.853 0.93-2.576 1.673-0.746 0.72-1.319 1.601-1.674 2.575-0.428 1.131-0.659 2.326-0.684 3.535-0.087 1.542-0.087 2.036-0.087 5.993s0 4.451 0.087 5.993c0.025 1.209 0.256 2.404 0.684 3.535 0.355 0.974 0.928 1.854 1.674 2.575 0.723 0.742 1.604 1.314 2.576 1.673 1.131 0.427 2.328 0.659 3.537 0.684 1.543 0.087 2.038 0.087 5.997 0.087s4.454 0 5.997-0.087c1.209-0.025 2.406-0.256 3.537-0.684 0.975-0.355 1.856-0.927 2.576-1.673 0.746-0.724 1.322-1.603 1.688-2.575 0.415-1.134 0.641-2.328 0.67-3.535 0-1.542 0.087-2.036 0.087-5.993s0-4.451-0.087-5.993zM28.909 21.818c-0.011 0.923-0.178 1.838-0.495 2.705-0.232 0.633-0.606 1.205-1.092 1.673-0.472 0.481-1.043 0.853-1.674 1.091-0.868 0.317-1.783 0.484-2.707 0.495-1.456 0.073-1.994 0.087-5.822 0.087s-4.367 0-5.822-0.087c-0.959 0.018-1.915-0.13-2.824-0.436-0.603-0.25-1.148-0.621-1.601-1.091-0.483-0.467-0.852-1.040-1.077-1.673-0.355-0.88-0.552-1.815-0.582-2.764 0-1.455-0.087-1.993-0.087-5.818s0-4.364 0.087-5.818c0.007-0.944 0.179-1.879 0.509-2.764 0.256-0.614 0.65-1.161 1.15-1.6 0.442-0.5 0.989-0.897 1.601-1.164 0.887-0.32 1.822-0.487 2.766-0.495 1.456 0 1.994-0.087 5.822-0.087s4.367 0 5.822 0.087c0.924 0.011 1.839 0.178 2.707 0.495 0.661 0.245 1.255 0.644 1.732 1.164 0.477 0.447 0.85 0.993 1.092 1.6 0.323 0.886 0.491 1.821 0.495 2.764 0.073 1.455 0.087 1.993 0.087 5.818s-0.015 4.364-0.087 5.818zM17.060 8.538c-1.476 0.003-2.918 0.443-4.144 1.265s-2.181 1.988-2.744 3.352c-0.563 1.364-0.709 2.864-0.419 4.31s1.002 2.775 2.047 3.817c1.045 1.042 2.375 1.751 3.823 2.038s2.949 0.138 4.312-0.427c1.364-0.565 2.529-1.522 3.349-2.748s1.257-2.669 1.257-4.144c0.002-0.982-0.19-1.954-0.566-2.861s-0.927-1.731-1.622-2.425c-0.695-0.693-1.521-1.243-2.429-1.616s-1.882-0.564-2.864-0.56zM17.060 20.844c-0.959 0-1.896-0.284-2.693-0.816s-1.418-1.289-1.785-2.174c-0.367-0.885-0.463-1.859-0.276-2.799s0.649-1.803 1.327-2.48c0.678-0.677 1.541-1.139 2.482-1.326s1.915-0.091 2.8 0.276c0.886 0.367 1.643 0.987 2.175 1.784s0.817 1.733 0.817 2.691c0 0.636-0.125 1.266-0.369 1.854s-0.601 1.122-1.051 1.571c-0.45 0.45-0.984 0.807-1.572 1.050s-1.218 0.369-1.855 0.369z"></path>
</symbol>
<symbol id="icon-linkedin" viewBox="0 0 32 32">
<path fill="var(--white-color)" d="M23.022 11.999c-1.194-0-2.37 0.295-3.422 0.86-0.096-0.253-0.267-0.471-0.49-0.624s-0.487-0.236-0.758-0.236h-5.337c-0.354 0-0.693 0.14-0.943 0.39s-0.391 0.589-0.391 0.943v16c0 0.354 0.141 0.693 0.391 0.943s0.59 0.391 0.943 0.391h5.337c0.354 0 0.693-0.141 0.943-0.391s0.391-0.589 0.391-0.943v-7.333c0-0.354 0.141-0.693 0.391-0.943s0.59-0.391 0.943-0.391c0.354 0 0.693 0.14 0.943 0.391s0.391 0.589 0.391 0.943v7.333c0 0.354 0.141 0.693 0.391 0.943s0.59 0.391 0.943 0.391h5.337c0.354 0 0.693-0.141 0.943-0.391s0.391-0.589 0.391-0.943v-10c-0.002-1.944-0.777-3.808-2.152-5.183s-3.241-2.148-5.186-2.151zM27.692 27.999h-2.669v-6c0-1.061-0.422-2.078-1.172-2.828s-1.769-1.172-2.83-1.172c-1.062 0-2.080 0.421-2.83 1.172s-1.172 1.768-1.172 2.828v6h-2.668v-13.333h2.668v0.937c-0 0.276 0.086 0.546 0.246 0.771s0.386 0.396 0.647 0.487c0.261 0.091 0.544 0.1 0.81 0.024s0.501-0.233 0.674-0.449c0.599-0.76 1.42-1.314 2.35-1.585s1.92-0.245 2.834 0.074c0.914 0.319 1.705 0.915 2.263 1.706s0.856 1.735 0.851 2.702v8.665zM9.012 11.999h-5.337c-0.354 0-0.693 0.14-0.943 0.39s-0.391 0.589-0.391 0.943v16c0 0.354 0.141 0.693 0.391 0.943s0.59 0.391 0.943 0.391h5.337c0.354 0 0.693-0.141 0.943-0.391s0.391-0.589 0.391-0.943v-16c0-0.354-0.141-0.693-0.391-0.943s-0.59-0.39-0.943-0.39zM7.678 27.999h-2.668v-13.333h2.668v13.333zM6.364 2.056c-0.584-0.036-1.17 0.048-1.721 0.246s-1.056 0.505-1.484 0.904c-0.428 0.399-0.77 0.881-1.006 1.416s-0.36 1.113-0.365 1.698c-0.005 0.585 0.109 1.165 0.335 1.704s0.56 1.027 0.981 1.434c0.421 0.406 0.92 0.723 1.468 0.93s1.131 0.301 1.716 0.276h0.037c0.585 0.033 1.17-0.053 1.72-0.253s1.054-0.51 1.481-0.911c0.427-0.401 0.767-0.884 1.001-1.421s0.355-1.115 0.358-1.7c0.003-0.585-0.114-1.165-0.343-1.703s-0.565-1.025-0.988-1.43c-0.423-0.405-0.924-0.719-1.472-0.924s-1.133-0.296-1.718-0.268zM6.325 7.999h-0.037c-0.231 0.028-0.465 0.007-0.687-0.063s-0.426-0.186-0.599-0.341c-0.173-0.155-0.311-0.345-0.405-0.558s-0.14-0.443-0.138-0.675c0-0.996 0.747-1.639 1.904-1.639 0.233-0.031 0.47-0.011 0.695 0.057s0.432 0.184 0.609 0.339c0.176 0.155 0.317 0.346 0.414 0.561s0.146 0.447 0.144 0.681c0 0.995-0.747 1.637-1.901 1.637h0.001z"></path>
</symbol>
<symbol id="icon-ultraRocket" viewBox="0 0 32 32">
<path fill="#7f8c8d" style="fill: var(--color2, #7f8c8d)" d="M2.483 31.089c-0.18-0-0.349-0.089-0.452-0.237s-0.127-0.337-0.064-0.507l1.666-4.511c0.065-0.19 0.227-0.33 0.425-0.365s0.399 0.039 0.525 0.194c0.127 0.155 0.159 0.367 0.085 0.554l-1.665 4.511c-0.080 0.217-0.287 0.361-0.519 0.361z"></path>
<path fill="#7f8c8d" style="fill: var(--color2, #7f8c8d)" d="M3.994 26.998c-0.274 0.002-0.508-0.197-0.549-0.468s0.122-0.531 0.384-0.611l5.624-1.735c0.188-0.058 0.394-0.011 0.538 0.123s0.207 0.335 0.163 0.527-0.187 0.347-0.375 0.405l-5.622 1.735c-0.053 0.016-0.108 0.024-0.163 0.024z"></path>
<path fill="#7f8c8d" style="fill: var(--color2, #7f8c8d)" d="M16 30.345c-0.305 0-0.552-0.247-0.552-0.552v-2.207c0-0.305 0.247-0.552 0.552-0.552s0.552 0.247 0.552 0.552v2.207c0 0.305-0.247 0.552-0.552 0.552z"></path>
<path fill="#7f8c8d" style="fill: var(--color2, #7f8c8d)" d="M29.646 31.442c-0.231 0-0.437-0.144-0.518-0.36l-1.693-4.587c-0.071-0.185-0.036-0.394 0.090-0.547s0.325-0.226 0.52-0.192 0.357 0.171 0.424 0.357l1.693 4.587c0.062 0.169 0.038 0.358-0.065 0.506s-0.272 0.236-0.453 0.236z"></path>
<path fill="#7f8c8d" style="fill: var(--color2, #7f8c8d)" d="M27.604 26.874c-0.056 0-0.112-0.008-0.166-0.024l-5.139-1.585c-0.291-0.090-0.455-0.399-0.365-0.69s0.399-0.455 0.69-0.365l5.139 1.585c0.261 0.080 0.424 0.339 0.384 0.609s-0.273 0.47-0.546 0.47h0.002z"></path>
<path fill="#3f5c6c" style="fill: var(--color3, #3f5c6c)" d="M0.552 29.793h4.414c0.305 0 0.552 0.247 0.552 0.552 0 0.914-0.741 1.655-1.655 1.655h-2.207c-0.914 0-1.655-0.741-1.655-1.655 0-0.305 0.247-0.552 0.552-0.552z"></path>
<path fill="#3f5c6c" style="fill: var(--color3, #3f5c6c)" d="M13.793 29.793h4.414c0.305 0 0.552 0.247 0.552 0.552 0 0.914-0.741 1.655-1.655 1.655h-2.207c-0.914 0-1.655-0.741-1.655-1.655 0-0.305 0.247-0.552 0.552-0.552z"></path>
<path fill="#e0c097" style="fill: var(--color4, #e0c097)" d="M8.828 15.995l-1.501 2.471-0.105 2.406 1.572 4.094 0.314 0.811c0.163 0.425 0.571 0.706 1.026 0.706h11.73c0.455-0 0.863-0.281 1.026-0.706l0.315-0.811 1.572-4.088-0.105-2.411-1.501-2.471h-14.345z"></path>
<path fill="#3f5c6c" style="fill: var(--color3, #3f5c6c)" d="M30.345 32h-2.207c-0.914 0-1.655-0.741-1.655-1.655 0-0.305 0.247-0.552 0.552-0.552h4.414c0.305 0 0.552 0.247 0.552 0.552 0 0.914-0.741 1.655-1.655 1.655z"></path>
<path fill="#b85c38" style="fill: var(--color5, #b85c38)" d="M23.172 16v-11.586l-3.862-2.759h-6.621l-3.862 2.759v11.586h14.345z"></path>
<path fill="#547580" style="fill: var(--color6, #547580)" d="M13.137 12.883v-0.005c-1.522-1.072-2.315-2.908-2.052-4.751s1.537-3.384 3.299-3.988v-0.005h3.233v0.005c1.762 0.604 3.036 2.144 3.299 3.988s-0.53 3.679-2.052 4.751v0.005h-5.727z"></path>
<path fill="#3f5c6c" style="fill: var(--color3, #3f5c6c)" d="M6.069 11.035l-0.972 4.855c-0.033 0.162 0.008 0.331 0.113 0.46s0.262 0.203 0.428 0.203h2.637c0.305 0 0.552-0.247 0.552-0.552v-4.965h-2.759z"></path>
<path fill="#95a5a5" style="fill: var(--color7, #95a5a5)" d="M6.621 8.276h1.655c0.305 0 0.552 0.247 0.552 0.552v2.207h-2.759v-2.207c0-0.305 0.247-0.552 0.552-0.552z"></path>
<path fill="#3f5c6c" style="fill: var(--color3, #3f5c6c)" d="M25.931 11.035l0.972 4.855c0.033 0.162-0.008 0.331-0.113 0.46s-0.262 0.203-0.428 0.203h-2.637c-0.305 0-0.552-0.247-0.552-0.552v-4.965h2.759z"></path>
<path fill="#95a5a5" style="fill: var(--color7, #95a5a5)" d="M25.931 11.035h-2.759v-2.207c0-0.305 0.247-0.552 0.552-0.552h1.655c0.305 0 0.552 0.247 0.552 0.552v2.207z"></path>
<path fill="#7f8c8d" style="fill: var(--color2, #7f8c8d)" d="M13.241 12.143l-0.105 0.734v0.006l-0.447 3.117h6.621l-0.447-3.117v-0.006l-0.105-0.734h-5.517z"></path>
<path fill="#95a5a5" style="fill: var(--color7, #95a5a5)" d="M13.771 8.436l0.612-4.298v-0.006l0.055-0.364h3.123l0.055 0.364v0.006l0.612 4.298h-4.458z"></path>
<path fill="#7f8c8d" style="fill: var(--color2, #7f8c8d)" d="M16 4.414c1.219 0 2.207-0.988 2.207-2.207s-0.988-2.207-2.207-2.207c-1.219 0-2.207 0.988-2.207 2.207s0.988 2.207 2.207 2.207z"></path>
<path fill="#95a5a5" style="fill: var(--color7, #95a5a5)" d="M16 2.759c0.305 0 0.552-0.247 0.552-0.552s-0.247-0.552-0.552-0.552c-0.305 0-0.552 0.247-0.552 0.552s0.247 0.552 0.552 0.552z"></path>
<path fill="#7f8c8d" style="fill: var(--color2, #7f8c8d)" d="M4.966 4.414c1.219 0 2.207-0.988 2.207-2.207s-0.988-2.207-2.207-2.207c-1.219 0-2.207 0.988-2.207 2.207s0.988 2.207 2.207 2.207z"></path>
<path fill="#95a5a5" style="fill: var(--color7, #95a5a5)" d="M4.966 2.759c0.305 0 0.552-0.247 0.552-0.552s-0.247-0.552-0.552-0.552c-0.305 0-0.552 0.247-0.552 0.552s0.247 0.552 0.552 0.552z"></path>
<path fill="#bdc3c7" style="fill: var(--color8, #bdc3c7)" d="M17.655 8.276h-3.31c-0.609 0-1.103 0.494-1.103 1.103v3.31c0 0.609 0.494 1.103 1.103 1.103h3.31c0.609 0 1.103-0.494 1.103-1.103v-3.31c0-0.609-0.494-1.103-1.103-1.103z"></path>
<path fill="#bdc3c7" style="fill: var(--color8, #bdc3c7)" d="M11.586 16h8.828v1.103c0 0.609-0.494 1.103-1.103 1.103h-6.621c-0.609 0-1.103-0.494-1.103-1.103v-1.103z"></path>
<path fill="#d25627" style="fill: var(--color9, #d25627)" d="M8.828 4.414l-1.71-1.71-0.017-1.048h5.589l-3.862 2.759z"></path>
<path fill="#95a5a5" style="fill: var(--color7, #95a5a5)" d="M15.448 12.138c-0.305 0-0.552-0.247-0.552-0.552v-1.103c0-0.305 0.247-0.552 0.552-0.552s0.552 0.247 0.552 0.552v1.103c0 0.305-0.247 0.552-0.552 0.552z"></path>
<path fill="#ecf0f1" style="fill: var(--color10, #ecf0f1)" d="M12.138 20.414h-1.103c-0.305 0-0.552 0.247-0.552 0.552v2.207c0 0.305 0.247 0.552 0.552 0.552h1.103c0.305 0 0.552-0.247 0.552-0.552v-2.207c0-0.305-0.247-0.552-0.552-0.552z"></path>
<path fill="#bdc3c7" style="fill: var(--color8, #bdc3c7)" d="M4.181 27.034c-0.361 0-0.699-0.176-0.906-0.472s-0.256-0.674-0.131-1.013l2.439-6.621c0.128-0.381 0.453-0.661 0.848-0.733s0.798 0.077 1.052 0.388c0.254 0.311 0.319 0.736 0.17 1.108l-2.439 6.621c-0.16 0.433-0.572 0.722-1.034 0.722z"></path>
<path fill="#bdc3c7" style="fill: var(--color8, #bdc3c7)" d="M16 27.586c-0.609 0-1.103-0.494-1.103-1.103v-7.172c0-0.609 0.494-1.103 1.103-1.103s1.103 0.494 1.103 1.103v7.172c0 0.609-0.494 1.103-1.103 1.103z"></path>
<path fill="#bdc3c7" style="fill: var(--color8, #bdc3c7)" d="M27.818 27.034c0.361 0 0.699-0.176 0.906-0.472s0.255-0.674 0.131-1.013l-2.439-6.621c-0.128-0.381-0.453-0.661-0.848-0.733s-0.798 0.077-1.052 0.388c-0.254 0.311-0.319 0.736-0.17 1.108l2.439 6.621c0.16 0.433 0.572 0.722 1.034 0.722z"></path>
</symbol>
<symbol id="icon-ionRocket" viewBox="0 0 32 32">
<path fill="#b85c38" style="fill: var(--color5, #b85c38)" d="M20.803 5.941l-1.876-1.876c-0.206-0.208-0.206-0.543 0-0.75l2.279-2.279c0.104-0.104 0.247-0.16 0.394-0.154l5.451 0.173-6.248 4.887z"></path>
<path fill="#b85c38" style="fill: var(--color5, #b85c38)" d="M30.947 4.95l0.173 5.451c0.006 0.147-0.050 0.29-0.154 0.394l-2.279 2.28c-0.207 0.206-0.543 0.206-0.75 0l-1.876-1.876 4.887-6.25z"></path>
<path fill="#b85c38" style="fill: var(--color5, #b85c38)" d="M9.916 16.828h-5.787c-0.141-0-0.276 0.056-0.376 0.156l-3.598 3.599c-0.1 0.1-0.156 0.235-0.156 0.375s0.056 0.276 0.156 0.375l10.509 10.511c0.1 0.1 0.235 0.156 0.375 0.156s0.276-0.056 0.375-0.156l3.601-3.596c0.1-0.1 0.156-0.235 0.156-0.376v-5.789l-5.256-5.256z"></path>
<path fill="#ecf0f1" style="fill: var(--color10, #ecf0f1)" d="M28.684 8.568l-3.36 3.366-0.783 0.778-2.974 2.974-0.778 0.783-2.974 2.974-0.783 0.778-2.974 2.974-0.778 0.783-5.241 5.241-5.258-5.258 1.49-1.484v-0.006l3.752-3.752 0.783-0.778 2.974-2.974 0.778-0.783 2.974-2.974 0.783-0.778 2.974-2.974 0.778-0.783 3.366-3.36 5.252 5.252z"></path>
<path fill="#95a5a5" style="fill: var(--color7, #95a5a5)" d="M28.686 8.569c2.065-2.065 2.986-5.469 3.299-7.334 0.057-0.338-0.053-0.683-0.295-0.925s-0.587-0.352-0.925-0.295c-1.865 0.313-5.27 1.234-7.334 3.299l5.256 5.256z"></path>
<path fill="#d1d4d1" style="fill: var(--color11, #d1d4d1)" d="M21.192 8.585c-0.215 0.214-0.563 0.214-0.778 0l-1.125-1.126 0.778-0.783 1.125 1.126c0.215 0.217 0.215 0.567 0 0.783z"></path>
<path fill="#d1d4d1" style="fill: var(--color11, #d1d4d1)" d="M17.44 12.337c-0.103 0.106-0.244 0.165-0.392 0.166-0.147-0.001-0.288-0.061-0.392-0.166l-1.125-1.126 0.783-0.778 1.126 1.126c0.214 0.215 0.214 0.563 0 0.778z"></path>
<path fill="#d1d4d1" style="fill: var(--color11, #d1d4d1)" d="M13.683 16.094c-0.215 0.214-0.563 0.214-0.778 0l-1.126-1.126 0.778-0.783 1.126 1.125c0.215 0.217 0.215 0.567 0 0.783z"></path>
<path fill="#d1d4d1" style="fill: var(--color11, #d1d4d1)" d="M9.931 19.845c-0.104 0.104-0.245 0.162-0.392 0.16-0.145 0.002-0.285-0.056-0.386-0.16l-1.131-1.126 0.783-0.778 1.126 1.126c0.214 0.215 0.214 0.563 0 0.778z"></path>
<path fill="#d1d4d1" style="fill: var(--color11, #d1d4d1)" d="M6.179 23.603c-0.106 0.101-0.246 0.158-0.392 0.16-0.146-0.001-0.287-0.058-0.392-0.16l-1.126-1.131 0.778-0.778 1.131 1.126c0.215 0.217 0.215 0.567 0 0.783z"></path>
<path fill="#d1d4d1" style="fill: var(--color11, #d1d4d1)" d="M25.324 11.934l-0.783 0.778-2.626-2.626c-0.184-0.186-0.213-0.475-0.072-0.695 0.022-0.029 0.046-0.057 0.072-0.083 0.215-0.214 0.563-0.214 0.778 0l2.632 2.626z"></path>
<path fill="#d1d4d1" style="fill: var(--color11, #d1d4d1)" d="M21.567 15.685l-0.778 0.783-2.626-2.632c-0.187-0.219-0.175-0.545 0.029-0.749s0.53-0.216 0.749-0.029l2.626 2.626z"></path>
<path fill="#d1d4d1" style="fill: var(--color11, #d1d4d1)" d="M17.815 19.443l-0.783 0.778-2.626-2.626c-0.216-0.216-0.216-0.567 0-0.783s0.567-0.216 0.783 0l2.626 2.632z"></path>
<path fill="#d1d4d1" style="fill: var(--color11, #d1d4d1)" d="M14.058 23.194l-0.778 0.783-2.626-2.632c-0.187-0.219-0.175-0.545 0.029-0.749s0.53-0.216 0.749-0.029l2.626 2.626z"></path>
<path fill="#d1d4d1" style="fill: var(--color11, #d1d4d1)" d="M10.306 26.952l-0.778 0.778-2.632-2.626c-0.216-0.216-0.216-0.567 0-0.783s0.567-0.216 0.783 0l2.626 2.632z"></path>
</symbol>
<symbol id="icon-superSonicRocket" viewBox="0 0 32 32">
<path fill="#2980ba" style="fill: var(--color12, #2980ba)" d="M29.407 14.469c-0.026 0.049-0.059 0.095-0.097 0.135l-2.942 2.942-12.235-12.235 2.937-2.948c0.040-0.038 0.086-0.071 0.135-0.097l12.202 12.202z"></path>
<path fill="#3b97d3" style="fill: var(--color13, #3b97d3)" d="M26.368 17.546l-11.072 11.094c-0.202 0.205-0.478 0.32-0.765 0.32s-0.563-0.115-0.765-0.32l-10.71-10.704c-0.203-0.203-0.317-0.478-0.317-0.765s0.114-0.562 0.317-0.765l11.077-11.094 12.235 12.235z"></path>
<path fill="#7f8c8d" style="fill: var(--color2, #7f8c8d)" d="M5.732 20.608l-5.144 3.090c-0.142 0.086-0.237 0.233-0.257 0.397s0.037 0.33 0.154 0.447l6.67 6.67c0.118 0.117 0.283 0.174 0.448 0.154s0.312-0.115 0.398-0.258l0.795-1.319 2.295-3.825-5.357-5.357z"></path>
<path fill="#95a5a5" style="fill: var(--color7, #95a5a5)" d="M9.188 30.727c-0.143 0-0.281-0.057-0.382-0.158l-7.677-7.677c-0.205-0.212-0.202-0.55 0.007-0.758s0.546-0.212 0.758-0.007l7.677 7.676c0.155 0.155 0.201 0.387 0.117 0.589s-0.281 0.334-0.5 0.334v0.001z"></path>
<path fill="#95a5a5" style="fill: var(--color7, #95a5a5)" d="M10.371 28.85c-0.143 0-0.281-0.057-0.382-0.158l-6.982-6.983c-0.205-0.212-0.202-0.55 0.007-0.758s0.546-0.212 0.758-0.007l6.982 6.983c0.155 0.155 0.201 0.387 0.117 0.589s-0.281 0.334-0.5 0.334z"></path>
<path fill="#bdc3c7" style="fill: var(--color8, #bdc3c7)" d="M31.209 5.56l-1.752 8.768c-0.011 0.049-0.027 0.096-0.049 0.141l-12.202-12.202c0.045-0.022 0.092-0.038 0.141-0.049l8.768-1.752 5.095 5.095z"></path>
<path fill="#2980ba" style="fill: var(--color12, #2980ba)" d="M15.296 17.936l-3.829 3.824c-0.211 0.21-0.552 0.21-0.763 0l-6.501-6.501 1.147-1.152 0.768-0.763 0.763-0.763 0.763-0.768 1.147-1.147 6.507 6.501c0.211 0.213 0.211 0.555 0 0.768z"></path>
<path fill="#285680" style="fill: var(--color14, #285680)" d="M12.997 17.936c-0.211 0.21-0.552 0.21-0.763 0l-5.355-5.355 0.763-0.768 5.355 5.355c0.211 0.213 0.211 0.555 0 0.768z"></path>
<path fill="#285680" style="fill: var(--color14, #285680)" d="M11.466 19.461c-0.099 0.103-0.236 0.162-0.379 0.162-0.145-0-0.283-0.059-0.384-0.162l-5.355-5.355 0.768-0.763 5.349 5.355c0.104 0.1 0.162 0.237 0.162 0.381s-0.059 0.282-0.162 0.381z"></path>
<path fill="#2980ba" style="fill: var(--color12, #2980ba)" d="M21.029 22.906l-4.587 4.587-2.677-2.677c-0.21-0.211-0.21-0.552 0-0.763l3.824-3.824c0.211-0.21 0.552-0.21 0.763 0l2.677 2.677z"></path>
<path fill="#285680" style="fill: var(--color14, #285680)" d="M19.882 24.053l-0.763 0.763-1.531-1.531c-0.184-0.215-0.171-0.534 0.028-0.734s0.52-0.212 0.734-0.028l1.531 1.531z"></path>
<path fill="#285680" style="fill: var(--color14, #285680)" d="M18.352 25.584l-0.763 0.763-1.531-1.531c-0.154-0.132-0.222-0.34-0.174-0.537s0.202-0.352 0.399-0.399c0.198-0.048 0.405 0.020 0.537 0.174l1.531 1.531z"></path>
<path fill="#285680" style="fill: var(--color14, #285680)" d="M26.365 15.028c-0.144 0-0.281-0.057-0.382-0.159l-9.179-9.179c-0.141-0.136-0.197-0.337-0.147-0.526s0.197-0.337 0.386-0.386c0.189-0.050 0.39 0.007 0.526 0.147l9.179 9.179c0.155 0.155 0.201 0.387 0.117 0.589s-0.281 0.334-0.5 0.334z"></path>
<path fill="#95a5a5" style="fill: var(--color7, #95a5a5)" d="M31.663 3.299l-0.454 2.261-5.095-5.095 2.261-0.454c0.178-0.035 0.362 0.019 0.492 0.146l2.65 2.65c0.127 0.13 0.182 0.314 0.146 0.492z"></path>
<path fill="#95a5a5" style="fill: var(--color7, #95a5a5)" d="M23.484 0.987l2.159 2.159c0.138 0.138 0.191 0.339 0.139 0.527s-0.201 0.333-0.39 0.38l-1.836 0.459c-0.184 0.046-0.379-0.008-0.514-0.142l-2.744-2.743 3.186-0.639z"></path>
</symbol>
<symbol id="icon-plasmaRocket" viewBox="0 0 32 32">
<path fill="#90bae1" style="fill: var(--color15, #90bae1)" d="M4.965 12.701c0-6.094 4.94-11.034 11.035-11.034s11.034 4.94 11.034 11.034h-22.069z"></path>
<path fill="#d25627" style="fill: var(--color9, #d25627)" d="M16 15.46h14.621c0.762 0 1.379-0.618 1.379-1.379s-0.618-1.379-1.379-1.379h-29.241c-0.762 0-1.379 0.618-1.379 1.379s0.618 1.379 1.379 1.379h14.621z"></path>
<path fill="#b85c38" style="fill: var(--color5, #b85c38)" d="M30.345 15.46l-4.481 4.481c-0.31 0.311-0.732 0.485-1.171 0.485h-17.387c-0.439 0-0.86-0.174-1.171-0.485l-4.481-4.481h28.69z"></path>
<path fill="#802f34" style="fill: var(--color16, #802f34)" d="M10.483 20.425h11.034v1.655c0 0.305-0.247 0.552-0.552 0.552h-9.931c-0.305 0-0.552-0.247-0.552-0.552v-1.655z"></path>
<path fill="#f0c419" style="fill: var(--color17, #f0c419)" d="M19.862 22.632c0 0-1.931 7.172-3.862 7.172s-3.862-7.172-3.862-7.172h7.724z"></path>
<path fill="#f29c1f" style="fill: var(--color18, #f29c1f)" d="M14.428 22.632c0.407 1.414 0.933 2.791 1.572 4.116 0.64-1.325 1.166-2.702 1.572-4.116h-3.145z"></path>
<path fill="#b0d3f0" style="fill: var(--color19, #b0d3f0)" d="M14.392 7.282c1.002-0.579 1.424-1.725 0.942-2.56s-1.686-1.043-2.688-0.465c-1.002 0.579-1.424 1.725-0.942 2.56s1.686 1.043 2.688 0.465z"></path>
<path fill="#b0d3f0" style="fill: var(--color19, #b0d3f0)" d="M9.379 10.494c0.609 0 1.103-0.494 1.103-1.103s-0.494-1.103-1.103-1.103c-0.609 0-1.103 0.494-1.103 1.103s0.494 1.103 1.103 1.103z"></path>
<path fill="#547580" style="fill: var(--color6, #547580)" d="M13.793 9.943c0.609 0 1.103 0.494 1.103 1.103v1.655h-2.207v-1.655c0-0.609 0.494-1.103 1.103-1.103z"></path>
<path fill="#547580" style="fill: var(--color6, #547580)" d="M18.207 9.943c0.609 0 1.103 0.494 1.103 1.103v1.655h-2.207v-1.655c0-0.609 0.494-1.103 1.103-1.103z"></path>
</symbol>
<symbol id="icon-liquidFuel" viewBox="0 0 32 32">
<path fill="#e0c097" style="fill: var(--color4, #e0c097)" d="M12.441 7.642l-6.884-6.884c-0.418-0.418-1.097-0.418-1.516 0l-3.284 3.284c-0.418 0.418-0.418 1.097 0 1.516l6.884 6.884c0.418 0.418 1.097 0.418 1.515 0l3.284-3.284c0.419-0.418 0.419-1.097 0-1.515z"></path>
<path fill="#e0c097" style="fill: var(--color4, #e0c097)" d="M11.179 10.422l-2.422-2.421 2.021-2.021-0.758-0.758-2.021 2.021-2.042-2.042 2.021-2.021-0.758-0.758-2.021 2.021-2.421-2.421-0.758 0.758 2.421 2.421-2.021 2.021 0.758 0.758 2.021-2.021 2.042 2.042-2.021 2.021 0.758 0.758 2.021-2.021 2.421 2.421 0.758-0.758z"></path>
<path fill="#7f8c8d" style="fill: var(--color2, #7f8c8d)" d="M11.599 9.998l1.6 1.6-1.6 1.6-1.6-1.6 1.6-1.6z"></path>
<path fill="#e0c097" style="fill: var(--color4, #e0c097)" d="M19.559 24.365l6.884 6.884c0.419 0.418 1.097 0.418 1.516 0l3.284-3.284c0.418-0.418 0.418-1.097 0-1.515l-6.884-6.884c-0.418-0.418-1.097-0.418-1.515 0l-3.284 3.284c-0.418 0.418-0.418 1.097 0 1.516z"></path>
<path fill="#e0c097" style="fill: var(--color4, #e0c097)" d="M29.98 29.223l-2.422-2.422 2.021-2.021-0.758-0.758-2.021 2.021-2.042-2.042 2.021-2.021-0.758-0.758-2.021 2.021-2.421-2.421-0.758 0.758 2.421 2.421-2.021 2.021 0.758 0.758 2.021-2.021 2.042 2.042-2.021 2.021 0.758 0.758 2.021-2.021 2.421 2.422 0.758-0.758z"></path>
<path fill="#7f8c8d" style="fill: var(--color2, #7f8c8d)" d="M20.4 22.005l-1.6-1.6 1.6-1.6 1.6 1.6-1.6 1.6z"></path>
<path fill="#95a5a5" style="fill: var(--color7, #95a5a5)" d="M15.6 23.603l-0.873 2.031c-0.072 0.173-0.227 0.298-0.411 0.334s-0.374-0.023-0.506-0.157l-7.62-7.62c-0.134-0.132-0.193-0.321-0.157-0.506s0.161-0.338 0.334-0.411l2.031-0.873 7.202 7.202z"></path>
<path fill="#b85c38" style="fill: var(--color5, #b85c38)" d="M17.203 22.001l-1.602 1.602-7.202-7.202 1.602-1.602 7.202 7.202z"></path>
<path fill="#547580" style="fill: var(--color6, #547580)" d="M21.999 17.204c-1.179 1.179-3.323 3.317-4.796 4.796l-7.202-7.202c1.479-1.479 3.623-3.617 4.802-4.791l7.197 7.197z"></path>
<path fill="#95a5a5" style="fill: var(--color7, #95a5a5)" d="M22.401 16.803l-0.402 0.402-7.197-7.197c0.15-0.155 0.284-0.289 0.397-0.407 1.602-1.597 4.4-1.2 4.4-1.2l0.263 0.037 3.703 3.703 0.038 0.263c0 0 0.397 2.797-1.2 4.4z"></path>
<path fill="#bdc3c7" style="fill: var(--color8, #bdc3c7)" d="M29.603 5.6c0.626 1.82 0.16 3.837-1.2 5.198-1.988 1.989-5.211 1.99-7.201 0.002s-1.99-5.212-0.002-7.201c1.361-1.36 3.378-1.826 5.198-1.2l3.205 3.2z"></path>
<path fill="#95a5a5" style="fill: var(--color7, #95a5a5)" d="M24.8 8.898c0.937 0 1.697-0.76 1.697-1.697s-0.76-1.697-1.697-1.697c-0.937 0-1.697 0.76-1.697 1.697s0.76 1.697 1.697 1.697z"></path>
<path fill="#95a5a5" style="fill: var(--color7, #95a5a5)" d="M30.801 4.4l-1.198 1.2-3.202-3.2 1.2-1.2c0.442-0.442 1.158-0.442 1.6 0l1.6 1.6c0.442 0.442 0.442 1.158 0 1.6z"></path>
<path fill="#b85c38" style="fill: var(--color5, #b85c38)" d="M16 17.6c0.883 0 1.599-0.716 1.599-1.599s-0.716-1.599-1.599-1.599-1.599 0.716-1.599 1.599c0 0.883 0.716 1.599 1.599 1.599z"></path>
<path fill="#f29c1f" style="fill: var(--color18, #f29c1f)" d="M7.846 19.846l-3.644 1.929 2.712 0.9-1.806 4.218 4.217-1.806 0.9 2.712 1.929-3.644-4.309-4.309z"></path>
</symbol>
<symbol id="icon-rocket" viewBox="0 0 32 32">
<path fill="#b85c38" style="fill: var(--color5, #b85c38)" d="M12.587 10.072c-4.856 1.225-9.199 3.958-12.404 7.806-0.205 0.24-0.241 0.581-0.090 0.858s0.456 0.432 0.769 0.391c1.625-0.214 3.267-0.264 4.901-0.148l6.824-8.907z"></path>
<path fill="#b85c38" style="fill: var(--color5, #b85c38)" d="M21.928 19.413c-1.225 4.856-3.958 9.199-7.806 12.404-0.24 0.205-0.581 0.241-0.858 0.090s-0.432-0.456-0.391-0.769c0.214-1.625 0.264-3.267 0.148-4.901l8.907-6.824z"></path>
<path fill="#f0c419" style="fill: var(--color17, #f0c419)" d="M10.428 26.468c0 0-3.060 3.060-7.343 2.447-0.612-4.284 2.448-7.344 2.448-7.344l4.895 4.897z"></path>
<path fill="#f29c1f" style="fill: var(--color18, #f29c1f)" d="M7.093 23.133c-0.892 1.009-1.505 2.234-1.777 3.553 1.32-0.269 2.545-0.883 3.551-1.779l-1.774-1.774z"></path>
<path fill="#bdc3c7" style="fill: var(--color8, #bdc3c7)" d="M21.464 9.069c-0.669-0-1.272-0.404-1.529-1.022s-0.115-1.33 0.358-1.803c0.216-0.215 0.565-0.215 0.781 0s0.215 0.565-0 0.781c-0.209 0.217-0.206 0.561 0.007 0.774s0.557 0.216 0.774 0.007l2.182-2.182c0.138-0.147 0.344-0.207 0.539-0.157s0.347 0.202 0.398 0.397c0.050 0.195-0.010 0.402-0.156 0.54l-2.182 2.182c-0.31 0.311-0.732 0.486-1.171 0.485z"></path>
<path fill="#bdc3c7" style="fill: var(--color8, #bdc3c7)" d="M24.586 12.19c-0.669-0-1.273-0.403-1.529-1.022s-0.115-1.33 0.358-1.804l2.066-2.065c0.217-0.209 0.561-0.206 0.774 0.007s0.216 0.557 0.007 0.774l-2.065 2.065c-0.139 0.139-0.194 0.343-0.143 0.533s0.2 0.339 0.39 0.39c0.19 0.051 0.394-0.003 0.533-0.143 0.216-0.216 0.565-0.216 0.781 0s0.216 0.565 0 0.781c-0.31 0.311-0.732 0.485-1.171 0.483z"></path>
<path fill="#ecf0f1" style="fill: var(--color10, #ecf0f1)" d="M24.75 15.037c0.182 0.18 0.217 0.462 0.083 0.68-0.612 0.987-1.307 1.92-2.077 2.789-5.021 5.678-10.019 7.941-11.347 8.473-0.204 0.082-0.438 0.033-0.593-0.124l-5.673-5.673c-0.157-0.155-0.205-0.388-0.124-0.593 0.532-1.329 2.795-6.327 8.473-11.347 0.869-0.77 1.802-1.465 2.789-2.077 0.219-0.134 0.5-0.099 0.68 0.083l7.788 7.788z"></path>
<path fill="#fff" style="fill: var(--color1, #fff)" d="M7.507 20.978c-0.19-0-0.366-0.098-0.467-0.258s-0.112-0.362-0.030-0.532c1.865-3.701 4.44-6.997 7.58-9.702 0.229-0.202 0.578-0.18 0.779 0.048s0.18 0.578-0.048 0.779c-3.030 2.607-5.516 5.785-7.316 9.353-0.092 0.191-0.285 0.313-0.498 0.313z"></path>
<path fill="#b85c38" style="fill: var(--color5, #b85c38)" d="M29.859 9.568c-0.215 0.469-0.452 0.944-0.712 1.418-0.085 0.15-0.236 0.252-0.407 0.275s-0.343-0.036-0.465-0.159l-7.378-7.378c-0.123-0.122-0.181-0.294-0.159-0.465s0.124-0.322 0.275-0.407c0.475-0.259 0.949-0.497 1.418-0.717l7.427 7.433z"></path>
<path fill="#b85c38" style="fill: var(--color5, #b85c38)" d="M32 0.563c-0.109 3.114-0.836 6.176-2.141 9.005l-7.427-7.433c2.831-1.301 5.892-2.027 9.006-2.135 0.15-0.003 0.295 0.055 0.401 0.162s0.165 0.251 0.162 0.401z"></path>
</symbol>
<symbol id="icon-play" viewBox="0 0 32 32">
<path fill="#fff" style="fill: var(--color1, #fff)" d="M4.033 0.196c0.514-0.28 1.14-0.258 1.632 0.058l22.4 14.4c0.458 0.294 0.735 0.801 0.735 1.346s-0.277 1.052-0.735 1.346l-22.4 14.4c-0.492 0.316-1.118 0.339-1.632 0.058s-0.833-0.819-0.833-1.404v-28.8c0-0.585 0.32-1.124 0.833-1.404zM6.4 4.531v22.939l17.841-11.469-17.841-11.469z"></path>
</symbol>
  
</defs>
</svg>
