<svg width="110" height="23" viewBox="0 0 110 23" fill="none" xmlns="http://www.w3.org/2000/svg">
<path d="M8.464 18.192C7.968 18.192 7.584 18.056 7.312 17.784C7.056 17.496 6.928 17.104 6.928 16.608V3.648H2.248C1.832 3.648 1.504 3.536 1.264 3.312C1.04 3.072 0.928 2.752 0.928 2.352C0.928 1.936 1.04 1.624 1.264 1.416C1.504 1.192 1.832 1.08 2.248 1.08H14.68C15.096 1.08 15.416 1.192 15.64 1.416C15.88 1.624 16 1.936 16 2.352C16 2.752 15.88 3.072 15.64 3.312C15.416 3.536 15.096 3.648 14.68 3.648H10V16.608C10 17.104 9.872 17.496 9.616 17.784C9.36 18.056 8.976 18.192 8.464 18.192ZM17.1273 18.192C16.6313 18.192 16.2473 18.064 15.9753 17.808C15.7193 17.536 15.5913 17.152 15.5913 16.656V7.584C15.5913 7.088 15.7193 6.712 15.9753 6.456C16.2313 6.2 16.5913 6.072 17.0553 6.072C17.5193 6.072 17.8793 6.2 18.1353 6.456C18.3913 6.712 18.5193 7.088 18.5193 7.584V9.096H18.2793C18.5033 8.136 18.9433 7.408 19.5993 6.912C20.2553 6.416 21.1273 6.12 22.2153 6.024C22.5513 5.992 22.8153 6.08 23.0073 6.288C23.2153 6.48 23.3353 6.784 23.3673 7.2C23.3993 7.6 23.3033 7.928 23.0793 8.184C22.8713 8.424 22.5513 8.568 22.1193 8.616L21.5913 8.664C20.6153 8.76 19.8793 9.064 19.3833 9.576C18.8873 10.072 18.6393 10.776 18.6393 11.688V16.656C18.6393 17.152 18.5113 17.536 18.2553 17.808C17.9993 18.064 17.6233 18.192 17.1273 18.192ZM28.7365 18.24C27.8885 18.24 27.1285 18.08 26.4565 17.76C25.8005 17.424 25.2805 16.976 24.8965 16.416C24.5285 15.856 24.3445 15.224 24.3445 14.52C24.3445 13.656 24.5685 12.976 25.0165 12.48C25.4645 11.968 26.1925 11.6 27.2005 11.376C28.2085 11.152 29.5605 11.04 31.2565 11.04H32.4565V12.768H31.2805C30.2885 12.768 29.4965 12.816 28.9045 12.912C28.3125 13.008 27.8885 13.176 27.6325 13.416C27.3925 13.64 27.2725 13.96 27.2725 14.376C27.2725 14.904 27.4565 15.336 27.8245 15.672C28.1925 16.008 28.7045 16.176 29.3605 16.176C29.8885 16.176 30.3525 16.056 30.7525 15.816C31.1685 15.56 31.4965 15.216 31.7365 14.784C31.9765 14.352 32.0965 13.856 32.0965 13.296V10.536C32.0965 9.736 31.9205 9.16 31.5685 8.808C31.2165 8.456 30.6245 8.28 29.7925 8.28C29.3285 8.28 28.8245 8.336 28.2805 8.448C27.7525 8.56 27.1925 8.752 26.6005 9.024C26.2965 9.168 26.0245 9.208 25.7845 9.144C25.5605 9.08 25.3845 8.952 25.2565 8.76C25.1285 8.552 25.0645 8.328 25.0645 8.088C25.0645 7.848 25.1285 7.616 25.2565 7.392C25.3845 7.152 25.6005 6.976 25.9045 6.864C26.6405 6.56 27.3445 6.344 28.0165 6.216C28.7045 6.088 29.3285 6.024 29.8885 6.024C31.0405 6.024 31.9845 6.2 32.7205 6.552C33.4725 6.904 34.0325 7.44 34.4005 8.16C34.7685 8.864 34.9525 9.776 34.9525 10.896V16.656C34.9525 17.152 34.8325 17.536 34.5925 17.808C34.3525 18.064 34.0085 18.192 33.5605 18.192C33.1125 18.192 32.7605 18.064 32.5045 17.808C32.2645 17.536 32.1445 17.152 32.1445 16.656V15.504H32.3365C32.2245 16.064 32.0005 16.552 31.6645 16.968C31.3445 17.368 30.9365 17.68 30.4405 17.904C29.9445 18.128 29.3765 18.24 28.7365 18.24ZM42.2455 18.24C41.2695 18.24 40.4615 18.064 39.8215 17.712C39.1815 17.344 38.7015 16.8 38.3815 16.08C38.0775 15.36 37.9255 14.464 37.9255 13.392V7.584C37.9255 7.072 38.0535 6.696 38.3095 6.456C38.5655 6.2 38.9335 6.072 39.4135 6.072C39.8935 6.072 40.2615 6.2 40.5175 6.456C40.7895 6.696 40.9255 7.072 40.9255 7.584V13.44C40.9255 14.272 41.0935 14.888 41.4295 15.288C41.7655 15.688 42.3015 15.888 43.0375 15.888C43.8375 15.888 44.4935 15.616 45.0055 15.072C45.5175 14.512 45.7735 13.776 45.7735 12.864V7.584C45.7735 7.072 45.9015 6.696 46.1575 6.456C46.4135 6.2 46.7815 6.072 47.2615 6.072C47.7415 6.072 48.1095 6.2 48.3655 6.456C48.6375 6.696 48.7735 7.072 48.7735 7.584V16.656C48.7735 17.68 48.2855 18.192 47.3095 18.192C46.8455 18.192 46.4855 18.064 46.2295 17.808C45.9735 17.536 45.8455 17.152 45.8455 16.656V14.832L46.1815 15.552C45.8455 16.416 45.3335 17.08 44.6455 17.544C43.9735 18.008 43.1735 18.24 42.2455 18.24ZM53.3839 18.192C52.9039 18.192 52.5359 18.064 52.2799 17.808C52.0239 17.536 51.8959 17.152 51.8959 16.656V7.584C51.8959 7.088 52.0239 6.712 52.2799 6.456C52.5359 6.2 52.8959 6.072 53.3599 6.072C53.8239 6.072 54.1839 6.2 54.4399 6.456C54.6959 6.712 54.8239 7.088 54.8239 7.584V9.216L54.5599 8.616C54.9119 7.768 55.4559 7.128 56.1919 6.696C56.9439 6.248 57.7919 6.024 58.7359 6.024C59.6799 6.024 60.4559 6.2 61.0639 6.552C61.6719 6.904 62.1279 7.44 62.4319 8.16C62.7359 8.864 62.8879 9.76 62.8879 10.848V16.656C62.8879 17.152 62.7599 17.536 62.5039 17.808C62.2479 18.064 61.8799 18.192 61.3999 18.192C60.9199 18.192 60.5439 18.064 60.2719 17.808C60.0159 17.536 59.8879 17.152 59.8879 16.656V10.992C59.8879 10.08 59.7119 9.416 59.3599 9C59.0239 8.584 58.4959 8.376 57.7759 8.376C56.8959 8.376 56.1919 8.656 55.6639 9.216C55.1519 9.76 54.8959 10.488 54.8959 11.4V16.656C54.8959 17.68 54.3919 18.192 53.3839 18.192ZM70.231 18.24C69.543 18.24 68.815 18.168 68.047 18.024C67.279 17.88 66.591 17.632 65.983 17.28C65.727 17.12 65.543 16.936 65.431 16.728C65.335 16.504 65.295 16.288 65.311 16.08C65.343 15.856 65.423 15.664 65.551 15.504C65.695 15.344 65.871 15.24 66.079 15.192C66.303 15.144 66.543 15.184 66.799 15.312C67.439 15.616 68.039 15.832 68.599 15.96C69.159 16.072 69.711 16.128 70.255 16.128C71.023 16.128 71.591 16 71.959 15.744C72.343 15.472 72.535 15.12 72.535 14.688C72.535 14.32 72.407 14.04 72.151 13.848C71.911 13.64 71.543 13.488 71.047 13.392L68.647 12.936C67.655 12.744 66.895 12.384 66.367 11.856C65.855 11.312 65.599 10.616 65.599 9.768C65.599 9 65.807 8.336 66.223 7.776C66.655 7.216 67.247 6.784 67.999 6.48C68.751 6.176 69.615 6.024 70.591 6.024C71.295 6.024 71.951 6.104 72.559 6.264C73.183 6.408 73.783 6.64 74.359 6.96C74.599 7.088 74.759 7.256 74.839 7.464C74.935 7.672 74.959 7.888 74.911 8.112C74.863 8.32 74.767 8.512 74.623 8.688C74.479 8.848 74.295 8.952 74.071 9C73.863 9.032 73.623 8.984 73.351 8.856C72.855 8.6 72.375 8.416 71.911 8.304C71.463 8.192 71.031 8.136 70.615 8.136C69.831 8.136 69.247 8.272 68.863 8.544C68.495 8.816 68.311 9.176 68.311 9.624C68.311 9.96 68.423 10.24 68.647 10.464C68.871 10.688 69.215 10.84 69.679 10.92L72.079 11.376C73.119 11.568 73.903 11.92 74.431 12.432C74.975 12.944 75.247 13.632 75.247 14.496C75.247 15.664 74.791 16.584 73.879 17.256C72.967 17.912 71.751 18.24 70.231 18.24ZM79.1418 18.192C78.6618 18.192 78.2938 18.064 78.0378 17.808C77.7818 17.536 77.6538 17.152 77.6538 16.656V2.4C77.6538 1.904 77.7818 1.528 78.0378 1.272C78.2938 1.016 78.6618 0.887999 79.1418 0.887999C79.6218 0.887999 79.9898 1.016 80.2458 1.272C80.5178 1.528 80.6538 1.904 80.6538 2.4V8.616H80.3178C80.6698 7.768 81.2138 7.128 81.9498 6.696C82.7018 6.248 83.5498 6.024 84.4938 6.024C85.4378 6.024 86.2138 6.2 86.8218 6.552C87.4298 6.904 87.8858 7.44 88.1898 8.16C88.4938 8.864 88.6458 9.76 88.6458 10.848V16.656C88.6458 17.152 88.5178 17.536 88.2618 17.808C88.0058 18.064 87.6378 18.192 87.1578 18.192C86.6778 18.192 86.3018 18.064 86.0298 17.808C85.7738 17.536 85.6458 17.152 85.6458 16.656V10.992C85.6458 10.08 85.4698 9.416 85.1178 9C84.7818 8.584 84.2538 8.376 83.5338 8.376C82.6538 8.376 81.9498 8.656 81.4218 9.216C80.9098 9.76 80.6538 10.488 80.6538 11.4V16.656C80.6538 17.68 80.1498 18.192 79.1418 18.192ZM93.1808 18.168C92.7008 18.168 92.3328 18.024 92.0768 17.736C91.8208 17.448 91.6928 17.048 91.6928 16.536V7.728C91.6928 7.2 91.8208 6.8 92.0768 6.528C92.3328 6.24 92.7008 6.096 93.1808 6.096C93.6608 6.096 94.0288 6.24 94.2848 6.528C94.5568 6.8 94.6928 7.2 94.6928 7.728V16.536C94.6928 17.048 94.5648 17.448 94.3088 17.736C94.0528 18.024 93.6768 18.168 93.1808 18.168ZM93.1808 3.864C92.6208 3.864 92.1808 3.728 91.8608 3.456C91.5568 3.168 91.4048 2.776 91.4048 2.28C91.4048 1.768 91.5568 1.376 91.8608 1.104C92.1808 0.831999 92.6208 0.696 93.1808 0.696C93.7568 0.696 94.1968 0.831999 94.5008 1.104C94.8048 1.376 94.9568 1.768 94.9568 2.28C94.9568 2.776 94.8048 3.168 94.5008 3.456C94.1968 3.728 93.7568 3.864 93.1808 3.864ZM99.298 22.512C98.818 22.512 98.45 22.384 98.194 22.128C97.938 21.872 97.81 21.496 97.81 21V7.584C97.81 7.088 97.938 6.712 98.194 6.456C98.45 6.2 98.81 6.072 99.274 6.072C99.754 6.072 100.122 6.2 100.378 6.456C100.634 6.712 100.762 7.088 100.762 7.584V9.456L100.498 8.736C100.738 7.92 101.226 7.264 101.962 6.768C102.714 6.272 103.586 6.024 104.578 6.024C105.602 6.024 106.498 6.272 107.266 6.768C108.05 7.264 108.658 7.968 109.09 8.88C109.522 9.776 109.738 10.856 109.738 12.12C109.738 13.368 109.522 14.456 109.09 15.384C108.658 16.296 108.058 17 107.29 17.496C106.522 17.992 105.618 18.24 104.578 18.24C103.602 18.24 102.746 18 102.01 17.52C101.274 17.024 100.778 16.384 100.522 15.6H100.81V21C100.81 21.496 100.674 21.872 100.402 22.128C100.146 22.384 99.778 22.512 99.298 22.512ZM103.738 15.96C104.33 15.96 104.85 15.816 105.298 15.528C105.746 15.24 106.09 14.816 106.33 14.256C106.586 13.68 106.714 12.968 106.714 12.12C106.714 10.84 106.442 9.888 105.898 9.264C105.354 8.624 104.634 8.304 103.738 8.304C103.146 8.304 102.626 8.448 102.178 8.736C101.73 9.008 101.378 9.432 101.122 10.008C100.882 10.568 100.762 11.272 100.762 12.12C100.762 13.384 101.034 14.344 101.578 15C102.122 15.64 102.842 15.96 103.738 15.96Z" fill="white"/>
</svg>
